<svg width="48" height="48" viewBox="0 0 48 48" fill="none" xmlns="http://www.w3.org/2000/svg">
<path d="M11.5059 41.0996C9.80196 41.0996 8.325 40.5427 7.075 39.4288C5.825 38.3149 5.16667 36.9052 5.1 35.1996H0.849998V11.5496C0.849998 10.2479 1.30792 9.13919 2.22375 8.22336C3.13958 7.30753 4.24833 6.84961 5.55 6.84961H34.5V14.5996H39.4L47.15 24.9774V35.1996H43C42.9 36.9052 42.227 38.3149 40.9809 39.4288C39.7348 40.5427 38.2598 41.0996 36.5559 41.0996C34.852 41.0996 33.375 40.5427 32.125 39.4288C30.875 38.3149 30.2167 36.9052 30.15 35.1996H17.9C17.8 36.8663 17.1353 38.2663 15.9059 39.3996C14.6765 40.5329 13.2098 41.0996 11.5059 41.0996ZM11.5 37.4996C12.3 37.4996 12.9833 37.2163 13.55 36.6496C14.1167 36.0829 14.4 35.3996 14.4 34.5996C14.4 33.7996 14.1167 33.1163 13.55 32.5496C12.9833 31.9829 12.3 31.6996 11.5 31.6996C10.7 31.6996 10.0167 31.9829 9.45 32.5496C8.88333 33.1163 8.6 33.7996 8.6 34.5996C8.6 35.3996 8.88333 36.0829 9.45 36.6496C10.0167 37.2163 10.7 37.4996 11.5 37.4996ZM5.55 30.4996H6.86735C7.42245 29.7663 8.09898 29.1829 8.89695 28.7496C9.69491 28.3163 10.5449 28.0996 11.4469 28.0996C12.349 28.0996 13.2079 28.3142 14.0237 28.7434C14.8396 29.1725 15.515 29.7579 16.05 30.4996H29.8V11.5496H5.55V30.4996ZM36.55 37.4996C37.35 37.4996 38.0333 37.2163 38.6 36.6496C39.1667 36.0829 39.45 35.3996 39.45 34.5996C39.45 33.7996 39.1667 33.1163 38.6 32.5496C38.0333 31.9829 37.35 31.6996 36.55 31.6996C35.75 31.6996 35.0667 31.9829 34.5 32.5496C33.9333 33.1163 33.65 33.7996 33.65 34.5996C33.65 35.3996 33.9333 36.0829 34.5 36.6496C35.0667 37.2163 35.75 37.4996 36.55 37.4996ZM34.5 26.7496H42.6L37.05 19.3496H34.5V26.7496Z" fill="black"/>
</svg>
