<svg width="48" height="48" viewBox="0 0 48 48" fill="none" xmlns="http://www.w3.org/2000/svg">
<path d="M2 42L24 4L46 42H2ZM7.2 39H40.8L24 10L7.2 39ZM24.2087 36.15C24.6362 36.15 24.9917 36.0054 25.275 35.7163C25.5583 35.4271 25.7 35.0687 25.7 34.6413C25.7 34.2138 25.5554 33.8583 25.2663 33.575C24.9771 33.2917 24.6187 33.15 24.1913 33.15C23.7638 33.15 23.4083 33.2946 23.125 33.5837C22.8417 33.8729 22.7 34.2313 22.7 34.6588C22.7 35.0863 22.8446 35.4417 23.1337 35.725C23.4229 36.0083 23.7813 36.15 24.2087 36.15ZM22.7 30.6H25.7V19.4H22.7V30.6Z" fill="#FF0342"/>
</svg>
